<svg width="33" height="13" viewBox="0 0 33 13" fill="none" xmlns="http://www.w3.org/2000/svg">
<path d="M25.2867 5.2512C26.6867 5.9312 28.0067 6.78453 29.2333 7.79786L27.8067 9.22453C27.0333 8.59786 26.1933 8.03786 25.3 7.53119V5.2512H25.2867ZM7.7 5.2512V7.51786C6.83333 8.0112 5.99333 8.5712 5.20667 9.21119L3.78 7.78453C4.99333 6.78453 6.31333 5.94453 7.7 5.2512ZM16.5 0.557861C10.4467 0.557861 4.95333 2.9312 0.886667 6.78453C0.646667 7.02453 0.5 7.35786 0.5 7.7312C0.5 8.10453 0.646667 8.43786 0.886667 8.66453L4.19333 11.9712C4.43333 12.2112 4.76667 12.3579 5.14 12.3579C5.5 12.3579 5.83333 12.2245 6.07333 11.9845C7.12667 11.0112 8.31333 10.1712 9.62 9.51786C10.06 9.30453 10.3667 8.83786 10.3667 8.31786V4.18453C12.3 3.55786 14.3667 3.22453 16.5 3.22453C18.6333 3.22453 20.7 3.55786 22.62 4.19786V8.3312C22.62 8.86453 22.9267 9.31786 23.3667 9.53119C24.6733 10.1845 25.8733 11.0112 26.9267 11.9979C27.1667 12.2245 27.5 12.3712 27.86 12.3712C28.2333 12.3712 28.5667 12.2245 28.8067 11.9845L32.1133 8.67786C32.3533 8.43786 32.5 8.10453 32.5 7.7312C32.5 7.35786 32.3533 7.02453 32.1133 6.78453C28.0467 2.9312 22.5533 0.557861 16.5 0.557861Z" fill="white"/>
</svg>
