<svg width="24" height="24" viewBox="0 0 24 24" fill="none" xmlns="http://www.w3.org/2000/svg">
<path fill-rule="evenodd" clip-rule="evenodd" d="M12.9425 21.6334L19.609 15.3835C20.1303 14.8948 20.1303 14.1048 19.609 13.6161C19.0877 13.1273 18.245 13.1273 17.7237 13.6161L13.3331 17.7323V3.24998C13.3331 2.55874 12.7372 2 11.9998 2C11.2625 2 10.6665 2.55874 10.6665 3.24998V17.7323L6.27595 13.6161C5.75463 13.1273 4.91198 13.1273 4.39066 13.6161C4.13066 13.8598 4 14.1798 4 14.4998C4 14.8198 4.13066 15.1398 4.39066 15.3835L11.0572 21.6334C11.5785 22.1222 12.4212 22.1222 12.9425 21.6334Z" fill="#EB5A5A"/>
</svg>
