<svg width="20" height="20" viewBox="0 0 20 20" fill="none" xmlns="http://www.w3.org/2000/svg">
<mask id="mask0_912_455" style="mask-type:luminance" maskUnits="userSpaceOnUse" x="0" y="6" width="20" height="14">
<path fill-rule="evenodd" clip-rule="evenodd" d="M0 6.61597H20V19.9999H0V6.61597Z" fill="white"/>
</mask>
<g mask="url(#mask0_912_455)">
<path fill-rule="evenodd" clip-rule="evenodd" d="M15.5653 19.9999H4.43509C1.99004 19.9999 0 18.063 0 15.6811V10.9338C0 8.55286 1.99004 6.61597 4.43509 6.61597H5.36811C5.78212 6.61597 6.11812 6.94316 6.11812 7.34632C6.11812 7.74947 5.78212 8.07667 5.36811 8.07667H4.43509C2.81606 8.07667 1.50003 9.3582 1.50003 10.9338V15.6811C1.50003 17.2577 2.81606 18.5392 4.43509 18.5392H15.5653C17.1833 18.5392 18.5004 17.2577 18.5004 15.6811V10.925C18.5004 9.3543 17.1883 8.07667 15.5763 8.07667H14.6333C14.2193 8.07667 13.8833 7.74947 13.8833 7.34632C13.8833 6.94316 14.2193 6.61597 14.6333 6.61597H15.5763C18.0154 6.61597 20.0004 8.54897 20.0004 10.925V15.6811C20.0004 18.063 18.0104 19.9999 15.5653 19.9999Z" fill="#665AF0"/>
</g>
<mask id="mask1_912_455" style="mask-type:luminance" maskUnits="userSpaceOnUse" x="9" y="0" width="2" height="14">
<path fill-rule="evenodd" clip-rule="evenodd" d="M9.25 0H10.75V13.1862H9.25V0Z" fill="white"/>
</mask>
<g mask="url(#mask1_912_455)">
<path fill-rule="evenodd" clip-rule="evenodd" d="M10 13.1863C9.58601 13.1863 9.25 12.8591 9.25 12.4559V0.730353C9.25 0.327198 9.58601 0 10 0C10.414 0 10.75 0.327198 10.75 0.730353V12.4559C10.75 12.8591 10.414 13.1863 10 13.1863Z" fill="#665AF0"/>
</g>
<path fill-rule="evenodd" clip-rule="evenodd" d="M7.08473 4.3135C6.89372 4.3135 6.70172 4.24241 6.55572 4.10023C6.26271 3.81588 6.26071 3.3543 6.55372 3.068L9.46877 0.2167C9.74978 -0.0588869 10.2498 -0.0588869 10.5308 0.2167L13.4468 3.068C13.7389 3.3543 13.7379 3.81588 13.4448 4.10023C13.1508 4.38458 12.6768 4.38458 12.3848 4.09829L9.99978 1.767L7.61574 4.09829C7.46974 4.24241 7.27673 4.3135 7.08473 4.3135Z" fill="#665AF0"/>
</svg>
