<svg width="16" height="18" viewBox="0 0 16 18" fill="none" xmlns="http://www.w3.org/2000/svg">
<path d="M14.2764 7.18851C14.722 7.18851 15.0837 7.54485 15.0837 7.98568C15.0837 11.5721 12.3341 14.5336 8.80799 14.9314V16.5361C8.80799 16.9762 8.44634 17.3333 8.00073 17.3333C7.55431 17.3333 7.19347 16.9762 7.19347 16.5361V14.9314C3.66653 14.5336 0.916992 11.5721 0.916992 7.98568C0.916992 7.54485 1.27865 7.18851 1.72426 7.18851C2.16987 7.18851 2.53152 7.54485 2.53152 7.98568C2.53152 10.9631 4.98479 13.3857 8.00073 13.3857C11.0159 13.3857 13.4691 10.9631 13.4691 7.98568C13.4691 7.54485 13.8308 7.18851 14.2764 7.18851ZM8.14596 0.666626C10.1488 0.666626 11.773 2.26973 11.773 4.24751V8.10023C11.773 10.0772 10.1488 11.6811 8.14596 11.6811H7.85453C5.85171 11.6811 4.22831 10.0772 4.22831 8.10023V4.24751C4.22831 2.26973 5.85171 0.666626 7.85453 0.666626H8.14596Z" fill="white"/>
</svg>
