<svg width="21" height="21" viewBox="0 0 21 21" fill="none" xmlns="http://www.w3.org/2000/svg">
<path d="M16.1074 6.80452L12.7741 10.1379H15.2741C15.2741 12.8962 13.0324 15.1379 10.2741 15.1379C9.66055 15.1379 9.06915 15.0272 8.52571 14.8219C8.16853 14.687 7.7556 14.7397 7.48562 15.0097C7.09505 15.4002 7.16804 16.0554 7.67588 16.2726C8.47284 16.6135 9.35063 16.8045 10.2741 16.8045C13.9574 16.8045 16.9408 13.8212 16.9408 10.1379H19.4408L16.1074 6.80452ZM5.27409 10.1379C5.27409 7.37952 7.51575 5.13786 10.2741 5.13786C10.9138 5.13786 11.5294 5.2582 12.0917 5.48061C12.4058 5.60483 12.7712 5.55739 13.0101 5.31856C13.4276 4.90106 13.3493 4.2004 12.8039 3.97426C12.0252 3.65142 11.1712 3.47119 10.2741 3.47119C6.59075 3.47119 3.60742 6.45452 3.60742 10.1379H1.10742L4.44075 13.4712L7.77409 10.1379H5.27409Z" fill="white"/>
</svg>
