<svg width="20" height="20" viewBox="0 0 20 20" fill="none" xmlns="http://www.w3.org/2000/svg">
<path d="M8.96436 2.50001C9.83382 2.50001 10.6447 3.12628 10.9375 4.1301C11.045 4.5497 11.0886 4.97019 11.1306 5.37547L11.1699 5.74408C11.3202 6.97424 11.3202 13.0177 11.1699 14.2568L11.1306 14.6389C11.093 15.0245 11.0546 15.4235 10.9436 15.8493C10.6509 16.8505 9.87052 17.5 8.98446 17.5C8.9565 17.5 8.92853 17.5 8.89708 17.4991C8.40773 17.4991 7.87557 17.1985 7.5741 16.9364L4.6354 14.4859H3.12629C1.96148 14.4859 1.10862 13.6422 0.953951 12.3369C0.775689 11.0316 0.810642 8.79221 0.953951 7.60588C1.1226 6.37034 2.01566 5.51415 3.12629 5.51415H4.6354L7.51817 3.09944C7.86596 2.79705 8.47938 2.49823 8.96436 2.50001ZM16.0747 2.68423C16.4225 2.4373 16.9005 2.52766 17.1391 2.88105C18.4463 4.80548 19.1663 7.33471 19.1663 9.99992C19.1663 12.6669 18.4463 15.1952 17.1391 17.1197C16.9966 17.3299 16.7616 17.4561 16.5108 17.4561C16.3552 17.4561 16.2049 17.4078 16.0756 17.3165C15.7296 17.0687 15.6439 16.5811 15.8834 16.2268C17.0141 14.5609 17.6371 12.3493 17.6371 9.99992C17.6371 7.65142 17.0141 5.4398 15.8834 3.77393C15.6439 3.42054 15.7296 2.93205 16.0747 2.68423ZM13.4399 5.21533C13.7886 4.9693 14.2648 5.05787 14.5051 5.41216C15.3493 6.65574 15.815 8.28493 15.815 10C15.815 11.7151 15.3493 13.3443 14.5051 14.5879C14.3618 14.7981 14.1277 14.9243 13.8769 14.9243C13.7213 14.9243 13.5701 14.8759 13.4408 14.7847C13.0948 14.5369 13.0092 14.0484 13.2495 13.695C13.9179 12.71 14.2858 11.3975 14.2858 10C14.2858 8.60164 13.9179 7.29006 13.2495 6.30503C13.0092 5.95164 13.0948 5.46315 13.4399 5.21533Z" fill="black"/>
</svg>
