<svg width="26" height="21" viewBox="0 0 26 21" fill="none" xmlns="http://www.w3.org/2000/svg">
<path fill-rule="evenodd" clip-rule="evenodd" d="M7.90649 3.81681C8.11172 3.56094 8.33088 3.31367 8.56397 3.07403C12.5507 -1.02468 19.0233 -1.02468 23.01 3.07403C26.9967 7.17273 26.9967 13.8273 23.01 17.926C19.0233 22.0247 12.5507 22.0247 8.56397 17.926C8.33088 17.6863 8.11172 17.4391 7.90649 17.1832H8.35781C8.95401 17.1832 9.50748 16.9903 9.96066 16.6609C13.2286 19.929 18.4624 19.9004 21.6969 16.576C24.9583 13.2229 24.9583 7.77708 21.6969 4.42403C18.4624 1.09962 13.2286 1.07098 9.96066 4.33906C9.50748 4.00967 8.95401 3.81681 8.35781 3.81681H7.90649ZM14.8583 6.68104H14.394C13.1116 6.68104 12.0724 7.74939 12.0724 9.06789C12.0724 10.3864 13.1116 11.4547 14.394 11.4547H17.18C17.4363 11.4547 17.6443 11.6686 17.6443 11.9321C17.6443 12.1994 17.44 12.4095 17.18 12.4095C15.8121 12.4095 13.001 12.4095 13.001 12.4095C12.4884 12.4095 12.0724 12.8372 12.0724 13.3642C12.0724 13.8912 12.4884 14.319 13.001 14.319H14.8583V15.2737C14.8583 15.8007 15.2744 16.2284 15.787 16.2284C16.2996 16.2284 16.7156 15.8007 16.7156 15.2737V14.319C16.7156 14.319 16.7156 14.3228 17.18 14.319C18.4308 14.3085 19.5016 13.2076 19.5016 11.9321C19.5016 10.6136 18.4624 9.54526 17.18 9.54526H14.394C14.1377 9.54526 13.9297 9.3314 13.9297 9.06789C13.9297 8.80438 14.1386 8.59052 14.394 8.59052H17.6443C18.1569 8.59052 18.5729 8.16279 18.5729 7.63578C18.5729 7.10876 18.1569 6.68104 17.6443 6.68104H16.7156V5.7263C16.7156 5.19928 16.2996 4.77156 15.787 4.77156C15.2744 4.77156 14.8583 5.19928 14.8583 5.7263V6.68104ZM2.78594 15.2737H8.35781C8.87043 15.2737 9.28646 14.846 9.28646 14.319C9.28646 13.7919 8.87043 13.3642 8.35781 13.3642H2.78594C2.27333 13.3642 1.85729 13.7919 1.85729 14.319C1.85729 14.846 2.27333 15.2737 2.78594 15.2737ZM0.928646 11.4547H7.42917C7.94178 11.4547 8.35781 11.027 8.35781 10.5C8.35781 9.97298 7.94178 9.54526 7.42917 9.54526H0.928646C0.416033 9.54526 0 9.97298 0 10.5C0 11.027 0.416033 11.4547 0.928646 11.4547ZM2.78594 7.63578H8.35781C8.87043 7.63578 9.28646 7.20805 9.28646 6.68104C9.28646 6.15402 8.87043 5.7263 8.35781 5.7263H2.78594C2.27333 5.7263 1.85729 6.15402 1.85729 6.68104C1.85729 7.20805 2.27333 7.63578 2.78594 7.63578Z" fill="#232440"/>
</svg>
