<svg width="25" height="24" viewBox="0 0 25 24" fill="none" xmlns="http://www.w3.org/2000/svg">
<path fill-rule="evenodd" clip-rule="evenodd" d="M13.8331 20.75V6.26775L18.2237 10.3839C18.745 10.8727 19.5877 10.8727 20.109 10.3839C20.6303 9.89519 20.6303 9.1052 20.109 8.61646L13.4425 2.36656C12.9212 1.87781 12.0785 1.87781 11.5572 2.36656L4.89066 8.61646C4.63066 8.86021 4.5 9.1802 4.5 9.5002C4.5 9.82019 4.63066 10.1402 4.89066 10.3839C5.41198 10.8727 6.25463 10.8727 6.77595 10.3839L11.1665 6.26775V20.75C11.1665 21.4413 11.7625 22 12.4998 22C13.2372 22 13.8331 21.4413 13.8331 20.75Z" fill="#3DAB25"/>
</svg>
